<svg width="1920" height="1080" version="1.1" viewBox="0 0 508 285.75" xml:space="preserve" xmlns="http://www.w3.org/2000/svg" xmlns:xlink="http://www.w3.org/1999/xlink"><defs><clipPath id="t"><path d="m0 0 45 30L0 60z"/></clipPath><clipPath id="f"><path d="m0 0h90v60H0z"/></clipPath><path id="D" d="m-31.5 0h33a30 30 0 0 0 30-30v-10a30 30 0 0 0-30-30h-33zm13-13h19a19 19 0 0 0 19-19v-6a19 19 0 0 0-19-19h-19z" fill-rule="evenodd"/><path id="E" transform="translate(-31.5)" d="m0 0h63v-13h-51v-18h40v-12h-40v-14h48v-13h-60z"/><path id="e" d="m-26.25 0h52.5v-12h-40.5v-16h33v-12h-33v-11h39.25v-12h-51.25z"/><g id="G"><clipPath id="gcut"><path d="m-31.5 0v-70h63v70zm31.5-47v12h31.5v-12z"/></clipPath><use clip-path="url(#gcut)" xlink:href="#O"/><rect x="5" y="-35" width="26.5" height="10"/><rect x="21.5" y="-35" width="10" height="35"/></g><path id="M" d="m-31.5 0h12v-48l14 48h11l14-48v48h12v-70h-17.5l-14 48-14-48h-17.5z"/><path id="O" d="m0 0a31.5 35 0 0 0 0-70 31.5 35 0 0 0 0 70m0-13a18.5 22 0 0 0 0-44 18.5 22 0 0 0 0 44" fill-rule="evenodd"/><path id="P" d="m-31.5 0h13v-26h28a22 22 0 0 0 0-44h-40zm13-39h27a9 9 0 0 0 0-18h-27z" fill-rule="evenodd"/><g id="R"><use xlink:href="#P"/><path d="m28 0c0-10 0-32-15-32h-19c22 0 22 22 22 32"/></g><path id="S" d="m-15.75-22c0 7 6.75 10.5 16.75 10.5s14.74-3.25 14.75-7.75c0-14.25-46.75-5.25-46.5-30.25 0.25-21.5 24.75-20.5 33.75-20.5s26 4 25.75 21.25h-15.25c0-7.5-7-10.25-15-10.25-7.75 0-13.25 1.25-13.25 8.5-0.25 11.75 46.25 4 46.25 28.75 0 18.25-18 21.75-31.5 21.75-11.5 0-31.55-4.5-31.5-22z"/><g id="star" fill="#fff"><g id="c"><path id="t-5" transform="rotate(18 0,-1)" d="m0-1v1h0.5"/><use transform="scale(-1,1)" xlink:href="#t-5"/></g><use transform="rotate(72)" xlink:href="#c"/><use transform="rotate(-72)" xlink:href="#c"/><use transform="rotate(144)" xlink:href="#c"/><use transform="rotate(216)" xlink:href="#c"/></g><use id="star1" transform="scale(31.5)" xlink:href="#star"/><use id="star2" transform="scale(26.25)" xlink:href="#star"/><use id="star3" transform="scale(21)" xlink:href="#star"/><use id="star4" transform="scale(15)" xlink:href="#star"/><use id="star5" transform="scale(10.5)" xlink:href="#star"/><polygon id="s" transform="scale(1.9468e-6)" points="0 -513674 301930 415571 -488533 -158734 488533 -158734 -301930 415571" fill="#ffde00"/><linearGradient id="linear-gradient" x1="14.87" x2="14.87" y1="502.16" y2="158.61" gradientUnits="userSpaceOnUse"><stop stop-color="#567e99" offset="0"/><stop stop-color="#73cccf" offset="1"/></linearGradient><linearGradient id="linear-gradient-3" x1="14.87" x2="14.87" y1="502.16" y2="158.61" gradientUnits="userSpaceOnUse"><stop stop-color="#73cccf" offset="0"/><stop stop-color="#73cccf" offset="1"/></linearGradient><linearGradient id="linear-gradient-4" x1="150.94" x2="150.94" y1="482.35" y2="-15.85" gradientUnits="userSpaceOnUse"><stop stop-color="#f68a1f" offset="0"/><stop stop-color="#f8da05" offset=".45"/><stop stop-color="#eeba43" offset="1"/></linearGradient><linearGradient id="linear-gradient-5" x1="150.94" x2="150.94" y1="482.35" y2="-15.85" gradientUnits="userSpaceOnUse"><stop stop-color="#f68a1f" offset="0"/><stop stop-color="#f8da05" offset=".45"/><stop stop-color="#f8da05" offset="1"/></linearGradient><linearGradient id="linear-gradient-6" x1="150.94" x2="150.94" y1="482.35" y2="-15.85" xlink:href="#linear-gradient-5"/><linearGradient id="linear-gradient-8" x1="195.86" x2="195.86" y1="-36.84" y2="556.4" gradientUnits="userSpaceOnUse"><stop stop-color="#92ce9a" offset="0"/><stop stop-color="#117e7a" offset="1"/></linearGradient><linearGradient id="linear-gradient-10" x1="241.77" x2="241.77" y1="-39.49" y2="526.07" gradientUnits="userSpaceOnUse"><stop stop-color="#92cd90" offset="0"/><stop stop-color="#258b76" offset="1"/></linearGradient><linearGradient id="linear-gradient-11" x1="241.77" x2="241.77" y1="-39.49" y2="526.07" xlink:href="#linear-gradient-10"/><linearGradient id="linear-gradient-12" x1="241.77" x2="241.77" y1="208.71" y2="486.5" xlink:href="#linear-gradient-10"/><linearGradient id="linear-gradient-13" x1="285.7" x2="285.7" y1="482.35" y2="-15.85" xlink:href="#linear-gradient-5"/><linearGradient id="linear-gradient-15" x1="375.46" x2="375.46" y1="482.35" y2="-15.85" xlink:href="#linear-gradient-10"/><linearGradient id="linear-gradient-16" x1="376.52" x2="376.52" y1="482.35" y2="-15.85" xlink:href="#linear-gradient-10"/></defs><g stroke-linecap="round" stroke-linejoin="round"><g transform="translate(-37.042 -10.583)" fill="#0287bf" stop-color="#000000" stroke-width="1.4222" style="paint-order:markers stroke fill;white-space:pre" aria-label="BRL   CNY   INR   RUB   ZAR"><g stroke-width=".84341" aria-label="BRL   CNY   INR   RUB   ZAR   AED"><path d="m133.41 183.74q1.3505 0.28782 2.1697 1.3505 0.81917 1.0406 0.81917 2.3911 0 1.9483-1.3727 3.0996-1.3505 1.1291-3.7859 1.1291h-7.2397v-15.542h6.9962q2.3689 0 3.6973 1.0848 1.3505 1.0848 1.3505 2.9446 0 1.3727-0.73061 2.2804-0.70847 0.90773-1.904 1.262zm-5.6235-1.2841h2.4796q0.92986 0 1.4169-0.39852 0.50921-0.42065 0.50921-1.2177t-0.50921-1.2177q-0.48708-0.42066-1.4169-0.42066h-2.4796zm2.7896 6.1991q0.95201 0 1.4612-0.42065 0.53135-0.44279 0.53135-1.262t-0.55349-1.2841q-0.53135-0.46493-1.4834-0.46493h-2.7453v3.4316z"/><path d="m146.52 191.71-3.2324-5.867h-0.90773v5.867h-3.7859v-15.542h6.3541q1.8376 0 3.1217 0.64206 1.3062 0.64205 1.9483 1.7712 0.64205 1.107 0.64205 2.4796 0 1.5498-0.88559 2.7675-0.86345 1.2177-2.5682 1.7269l3.5866 6.1548zm-4.1401-8.5459h2.3468q1.0406 0 1.5498-0.50921 0.53135-0.50922 0.53135-1.4391 0-0.88559-0.53135-1.3948-0.50922-0.50921-1.5498-0.50921h-2.3468z"/><path d="m156.81 188.78h4.9593v2.9224h-8.7452v-15.542h3.7859z"/><path d="m177.03 183.91q0-2.3025 0.99629-4.0958 0.99629-1.8154 2.7675-2.8117 1.7933-1.0184 4.0516-1.0184 2.7675 0 4.7379 1.4612 1.9704 1.4612 2.6346 3.9851h-4.1623q-0.46494-0.97414-1.3284-1.4834-0.84131-0.50921-1.9262-0.50921-1.749 0-2.8339 1.2177-1.0848 1.2177-1.0848 3.2545t1.0848 3.2545q1.0848 1.2177 2.8339 1.2177 1.0848 0 1.9262-0.50921 0.86345-0.50922 1.3284-1.4834h4.1623q-0.66419 2.5239-2.6346 3.9851-1.9704 1.4391-4.7379 1.4391-2.2582 0-4.0516-0.99628-1.7712-1.0184-2.7675-2.8118-0.99629-1.7933-0.99629-4.0958z"/><path d="m208.44 191.71h-3.7859l-6.332-9.5865v9.5865h-3.7859v-15.542h3.7859l6.332 9.6308v-9.6308h3.7859z"/><path d="m224.52 176.16-5.3799 10.406v5.1364h-3.7859v-5.1364l-5.38-10.406h4.2951l3.011 6.5091 2.9889-6.5091z"/><path d="m243.91 176.16v15.542h-3.7859v-15.542z"/><path d="m260.56 191.71h-3.7859l-6.332-9.5865v9.5865h-3.7859v-15.542h3.7859l6.332 9.6308v-9.6308h3.7859z"/><path d="m271.23 191.71-3.2324-5.867h-0.90773v5.867h-3.7859v-15.542h6.3541q1.8376 0 3.1217 0.64206 1.3062 0.64205 1.9483 1.7712 0.64205 1.107 0.64205 2.4796 0 1.5498-0.88559 2.7675-0.86345 1.2177-2.5682 1.7269l3.5866 6.1548zm-4.1401-8.5459h2.3468q1.0406 0 1.5498-0.50921 0.53135-0.50922 0.53135-1.4391 0-0.88559-0.53135-1.3948-0.50921-0.50921-1.5498-0.50921h-2.3468z"/><path d="m299.75 191.71-3.2324-5.867h-0.90773v5.867h-3.7859v-15.542h6.3541q1.8376 0 3.1217 0.64206 1.3062 0.64205 1.9483 1.7712 0.64205 1.107 0.64205 2.4796 0 1.5498-0.88559 2.7675-0.86345 1.2177-2.5682 1.7269l3.5866 6.1548zm-4.1401-8.5459h2.3468q1.0406 0 1.5498-0.50921 0.53135-0.50922 0.53135-1.4391 0-0.88559-0.53135-1.3948-0.50921-0.50921-1.5498-0.50921h-2.3468z"/><path d="m309.98 176.16v9.2987q0 1.3948 0.68633 2.1476t2.0147 0.75275q1.3284 0 2.0368-0.75275t0.70847-2.1476v-9.2987h3.7859v9.2765q0 2.0811-0.88559 3.5202t-2.3911 2.1697q-1.4834 0.73061-3.321 0.73061-1.8376 0-3.2988-0.70847-1.4391-0.73061-2.2804-2.1697-0.84131-1.4612-0.84131-3.5424v-9.2765z"/><path d="m331.27 183.74q1.3505 0.28782 2.1697 1.3505 0.81917 1.0406 0.81917 2.3911 0 1.9483-1.3727 3.0996-1.3505 1.1291-3.7859 1.1291h-7.2397v-15.542h6.9962q2.369 0 3.6973 1.0848 1.3505 1.0848 1.3505 2.9446 0 1.3727-0.73061 2.2804-0.70847 0.90773-1.904 1.262zm-5.6235-1.2841h2.4796q0.92987 0 1.4169-0.39852 0.50921-0.42065 0.50921-1.2177t-0.50921-1.2177q-0.48707-0.42066-1.4169-0.42066h-2.4796zm2.7896 6.1991q0.95201 0 1.4612-0.42065 0.53136-0.44279 0.53136-1.262t-0.5535-1.2841q-0.53135-0.46493-1.4834-0.46493h-2.7453v3.4316z"/><path d="m354.57 188.61h6.6862v3.0996h-10.981v-2.8782l6.6419-9.5644h-6.6419v-3.0996h10.981v2.8782z"/><path d="m373.41 188.96h-5.8006l-0.92987 2.7453h-3.963l5.6235-15.542h4.3837l5.6235 15.542h-4.0073zm-0.97415-2.9224-1.9262-5.6899-1.904 5.6899z"/><path d="m387.97 191.71-3.2324-5.867h-0.90773v5.867h-3.7859v-15.542h6.3541q1.8376 0 3.1217 0.64206 1.3062 0.64205 1.9483 1.7712 0.64205 1.107 0.64205 2.4796 0 1.5498-0.88559 2.7675-0.86345 1.2177-2.5682 1.7269l3.5866 6.1548zm-4.1401-8.5459h2.3468q1.0406 0 1.5498-0.50921 0.53135-0.50922 0.53135-1.4391 0-0.88559-0.53135-1.3948-0.50921-0.50921-1.5498-0.50921h-2.3468z"/><path d="m418.24 188.96h-5.8006l-0.92987 2.7453h-3.963l5.6235-15.542h4.3837l5.6235 15.542h-4.0073zm-0.97414-2.9224-1.9262-5.6899-1.904 5.6899z"/><path d="m428.67 179.2v3.1438h5.07v2.9224h-5.07v3.4095h5.7342v3.0331h-9.5201v-15.542h9.5201v3.0331z"/><path d="m442.68 176.16q2.4575 0 4.2951 0.97415 1.8376 0.97415 2.8339 2.7453 1.0184 1.749 1.0184 4.0516 0 2.2804-1.0184 4.0516-0.99628 1.7712-2.856 2.7453-1.8376 0.97414-4.273 0.97414h-5.8227v-15.542zm-0.24354 12.265q2.1476 0 3.3431-1.1734 1.1955-1.1734 1.1955-3.321t-1.1955-3.3431q-1.1956-1.1955-3.3431-1.1955h-1.7933v9.033z"/></g></g><rect x="57.998" y="146.91" width="381.58" height="107.58" ry="13.014" fill="none" stop-color="#000000" stroke="#0089bd" stroke-width="4.234" style="paint-order:markers stroke fill"/><circle cx="246.97" cy="79.239" r="67.092" fill="none" stop-color="#000000" stroke="#0089bd" stroke-width="4.234" style="paint-order:markers stroke fill"/><g transform="matrix(.44616 0 0 .44616 314.94 201.89)"><path d="m0 0h90v30h-45z" fill="#e03c31"/><path d="m0 60h90v-30h-45z" fill="#001489"/><g clip-path="url(#f)" fill="none"><path d="m90 30h-45l-45-30v60l45-30" stroke="#fff" stroke-width="20"/><path d="m0 0 45 30-45 30" clip-path="url(#t)" fill="#000" stroke="#ffb81c" stroke-width="20"/><path d="m0 0 45 30h45m-90 30 45-30" stroke="#007749" stroke-width="12"/></g></g><g transform="matrix(.23645 0 0 .23645 135.47 214.25)"><rect x="-231.56" y="-54.744" width="176.81" height="115.95" fill="#008000" stop-color="#000000" style="paint-order:markers stroke fill"/><g transform="matrix(.045357 0 0 .045357 -131.31 -3.3359)"><rect x="-50%" y="-50%" width="100%" height="100%" fill="#009b3a"/><path d="M -1743,0 0,1113 1743,0 0,-1113 Z" fill="#fedf00"/><circle r="735" fill="#002776"/><path d="m-2205 1470a1785 1785 0 0 1 3570 0h-105a1680 1680 0 1 0-3360 0z" clip-path="url(#band)" fill="#fff"/><g transform="translate(-420,1470)" fill="#009b3a"><use transform="rotate(-7)" y="-1697.5" xlink:href="#O"/><use transform="rotate(-4)" y="-1697.5" xlink:href="#R"/><use transform="rotate(-1)" y="-1697.5" xlink:href="#D"/><use transform="rotate(2)" y="-1697.5" xlink:href="#E"/><use transform="rotate(5)" y="-1697.5" xlink:href="#M"/><use transform="rotate(9.75)" y="-1697.5" xlink:href="#e"/><use transform="rotate(14.5)" y="-1697.5" xlink:href="#P"/><use transform="rotate(17.5)" y="-1697.5" xlink:href="#R"/><use transform="rotate(20.5)" y="-1697.5" xlink:href="#O"/><use transform="rotate(23.5)" y="-1697.5" xlink:href="#G"/><use transform="rotate(26.5)" y="-1697.5" xlink:href="#R"/><use transform="rotate(29.5)" y="-1697.5" xlink:href="#E"/><use transform="rotate(32.5)" y="-1697.5" xlink:href="#S"/><use transform="rotate(35.5)" y="-1697.5" xlink:href="#S"/><use transform="rotate(38.5)" y="-1697.5" xlink:href="#O"/></g><use id="αCMi" x="-600" y="-132" xlink:href="#star1"/><use id="αCMa" x="-535" y="177" xlink:href="#star1"/><use id="βCMa" x="-625" y="243" xlink:href="#star2"/><use id="γCMa" x="-463" y="132" xlink:href="#star4"/><use id="δCMa" x="-382" y="250" xlink:href="#star2"/><use id="εCMa" x="-404" y="323" xlink:href="#star3"/><use id="αVir" x="228" y="-228" xlink:href="#star1"/><use id="αSco" x="515" y="258" xlink:href="#star1"/><use id="βSco" x="617" y="265" xlink:href="#star3"/><use id="εSco" x="545" y="323" xlink:href="#star2"/><use id="θSco" x="368" y="477" xlink:href="#star2"/><use id="ιSco" x="367" y="551" xlink:href="#star3"/><use id="κSco" x="441" y="419" xlink:href="#star3"/><use id="λSco" x="500" y="382" xlink:href="#star2"/><use id="μSco" x="365" y="405" xlink:href="#star3"/><use id="αHya" x="-280" y="30" xlink:href="#star2"/><use id="γHya" x="200" y="-37" xlink:href="#star3"/><use id="αCru" y="330" xlink:href="#star1"/><use id="βCru" x="85" y="184" xlink:href="#star2"/><use id="γCru" y="118" xlink:href="#star2"/><use id="δCru" x="-74" y="184" xlink:href="#star3"/><use id="εCru" x="-37" y="235" xlink:href="#star4"/><use id="αTrA" x="220" y="495" xlink:href="#star2"/><use id="βTrA" x="283" y="430" xlink:href="#star3"/><use id="γTrA" x="162" y="412" xlink:href="#star3"/><use id="αCar" x="-295" y="390" xlink:href="#star1"/><use id="σOct" y="575" xlink:href="#star5"/></g><g transform="matrix(18.453 0 0 18.453 1024.8 -11.883)"><g stroke-width=".89262"><rect id="green" x="-1.045" y="-2.1698" width="9.3955" height="6.1058" fill="#00732f"/><rect x="-1.045" y="-.13451" width="9.3955" height="4.0706" fill="#fff"/><rect x="-1.045" y="1.9008" width="9.3955" height="2.0353"/></g><rect id="red" x="-1.045" y="-2.1698" width="2.2247" height="6.1058" fill="#f00" stroke-width=".8687"/></g></g><g transform="matrix(1.4302 0 0 1.4302 146.42 208.12)"><rect x="-5" y="-5" width="30" height="20" fill="#de2910"/><use transform="scale(3)" xlink:href="#s"/><use transform="rotate(239.04 1.6507 -2.9155)" xlink:href="#s"/><use transform="rotate(-98.13,3.0664,-3.5355)" xlink:href="#s"/><use transform="rotate(-74.055,4.8257,-3.6401)" xlink:href="#s"/><use transform="rotate(-51.34,6.6612,-3.2016)" xlink:href="#s"/></g><g transform="matrix(.18942 0 0 .18942 198.33 201.07)"><rect width="225" height="150" fill="#f93"/><rect y="50" width="225" height="50" fill="#fff"/><rect y="100" width="225" height="50" fill="#128807"/><g transform="translate(112.5,75)"><circle r="20" fill="#008"/><circle r="17.5" fill="#fff"/><circle r="3.5" fill="#008"/><g id="d"><g id="c-1"><g id="b"><g id="a"><circle transform="rotate(7.5,-8.75,133.5)" r=".875" fill="#008"/><path d="M 0,17.5 0.6,7 0,2 -0.6,7 Z" fill="#008"/></g><use transform="rotate(15)" xlink:href="#a"/></g><use transform="rotate(30)" xlink:href="#b"/></g><use transform="rotate(60)" xlink:href="#c-1"/></g><use transform="rotate(120)" xlink:href="#d"/><use transform="rotate(240)" xlink:href="#d"/></g></g><g transform="matrix(4.595 0 0 4.595 257.27 201.49)" stroke="#000" stroke-width=".067786"><rect width="9" height="3" fill="#fff"/><rect y="3" width="9" height="3" fill="#d52b1e"/><rect y="2" width="9" height="2" fill="#0039a6"/></g><g transform="matrix(.19252 0 0 .19252 211.86 34.217)" stroke-width="0px" data-name="Layer 2"><polygon class="cls-8" points="29.73 282.35 29.73 290.73 0 305.82 0 297.44" fill="#3fb0e4"/><path class="cls-2" d="m29.73 14.87v267.48l-29.73 15.09v-282.57c0-8.21 6.66-14.87 14.87-14.87 4.11 0 7.82 1.67 10.51 4.36s4.35 6.41 4.35 10.51z" fill="url(#linear-gradient)"/><path class="cls-8" d="m29.73 365.16v8.81c-13.29 6.27-23.6 11.09-29.73 13.95v-8.81c6.13-2.86 16.44-7.68 29.73-13.95z" fill="#3fb0e4"/><path class="cls-17" d="m29.73 310.1v55.06c-13.29 6.27-23.6 11.09-29.73 13.95v-53.95z" fill="url(#linear-gradient-3)"/><path class="cls-19" d="m0 411.47 29.73-15.44v37.41c0 8.21-6.65 14.86-14.86 14.86s-14.87-6.65-14.87-14.86z" fill="url(#linear-gradient-3)"/><polygon class="cls-27" points="75.64 259.04 75.64 267.42 45.91 282.52 45.91 274.14" fill="#c92828"/><path class="cls-11" d="m75.64 14.87v244.17l-29.73 15.1v-259.27c0-8.21 6.66-14.87 14.87-14.87 4.1 0 7.82 1.67 10.5 4.36 2.7 2.69 4.36 6.41 4.36 10.51z" fill="#ef3740"/><path class="cls-27" d="m75.64 343.4v8.81c-10.64 5.07-20.63 9.81-29.73 14.11v-8.81c9.1-4.3 19.09-9.04 29.73-14.11z" fill="#c92828"/><path class="cls-11" d="m75.64 286.83v56.57c-10.64 5.07-20.63 9.81-29.73 14.11v-55.61z" fill="#ef3740"/><path class="cls-11" d="m45.91 387.62 29.73-15.44v61.26c0 8.21-6.66 14.86-14.86 14.86s-14.87-6.65-14.87-14.86z" fill="#ef3740"/><polygon class="cls-26" points="119.89 236.58 119.89 244.96 90.17 260.05 90.17 251.67" fill="#cb5928"/><path class="cls-20" d="m119.89 14.87v221.71l-29.72 15.09v-236.8c0-8.21 6.65-14.87 14.86-14.87 4.11 0 7.82 1.67 10.51 4.36s4.35 6.41 4.35 10.51z" fill="#f68a1f"/><path class="cls-26" d="m119.89 322.23v8.81c-10.2 4.91-20.16 9.68-29.72 14.24v-8.81c9.56-4.56 19.52-9.33 29.72-14.24z" fill="#cb5928"/><path class="cls-20" d="m119.89 264.41v57.82c-10.2 4.91-20.16 9.68-29.72 14.24v-57z" fill="#f68a1f"/><path class="cls-20" d="m119.89 349.19v84.25c0 8.21-6.65 14.86-14.86 14.86s-14.86-6.65-14.86-14.86v-68.81z" fill="#f68a1f"/><polygon class="cls-14" points="165.8 213.28 165.8 221.66 136.08 236.75 136.08 228.37" fill="#fcdd15"/><path class="cls-24" d="m165.8 14.87v198.41l-29.72 15.09v-213.5c0-8.21 6.65-14.87 14.86-14.87 4.1 0 7.82 1.67 10.51 4.36s4.35 6.41 4.35 10.51z" fill="url(#linear-gradient-4)"/><path class="cls-9" d="m165.8 300.03v8.81c-9.96 4.85-19.91 9.67-29.72 14.41v-8.81c9.81-4.74 19.76-9.56 29.72-14.41z" fill="#f7ae1a"/><path class="cls-7" d="m165.8 241.15v58.88c-9.96 4.85-19.91 9.67-29.72 14.41v-58.23z" fill="url(#linear-gradient-6)"/><path class="cls-4" d="m165.8 325.35v108.09c0 8.21-6.65 14.86-14.86 14.86s-14.86-6.65-14.86-14.86v-92.66z" fill="url(#linear-gradient-6)"/><polygon class="cls-25" points="210.72 190.48 210.72 198.86 181 213.94 181 205.56" fill="#15a78d"/><path class="cls-18" d="m210.72 14.87v175.61l-29.72 15.08v-190.69c0-8.21 6.65-14.87 14.86-14.87 4.1 0 7.82 1.67 10.51 4.36s4.35 6.41 4.35 10.51z" fill="url(#linear-gradient-8)"/><path class="cls-25" d="m210.72 277.99v8.81c-9.76 4.83-19.71 9.72-29.72 14.61v-8.81c10.01-4.89 19.96-9.78 29.72-14.61z" fill="#15a78d"/><path class="cls-22" d="m210.72 218.39v59.6c-9.76 4.83-19.71 9.72-29.72 14.61v-59.15z" fill="url(#linear-gradient-8)"/><path class="cls-21" d="m210.72 302.01v131.43c0 8.21-6.65 14.86-14.86 14.86s-14.86-6.65-14.86-14.86v-115.99l23.9-12.42z" fill="url(#linear-gradient-8)"/><path class="cls-3" d="m256.63 95.15v8.38c-8.88-10.44-21.52-10.92-29.73-9.82v-8.38c8.21-1.1 20.85-0.62 29.73 9.82z" fill="#398e5b"/><path class="cls-23" d="m256.63 14.87v80.28c-8.88-10.44-21.52-10.92-29.73-9.82v-70.46c0-8.21 6.66-14.87 14.87-14.87 4.1 0 7.81 1.67 10.51 4.36 2.68 2.69 4.35 6.41 4.35 10.51z" fill="url(#linear-gradient-11)"/><path class="cls-3" d="m256.63 254.97v8.81c-9.49 4.83-19.45 9.85-29.73 14.98v-8.81c10.28-5.13 20.24-10.15 29.73-14.98z" fill="#398e5b"/><path class="cls-6" d="m256.63 195.13v59.84c-9.49 4.83-19.45 9.85-29.73 14.98v-59.76z" fill="url(#linear-gradient-11)"/><path class="cls-1" d="m256.63 364.73v68.71c0 8.21-6.66 14.86-14.86 14.86s-14.87-6.65-14.87-14.86v-68.71c4.62 1.75 9.63 2.7 14.86 2.7s10.25-0.96 14.87-2.7z" fill="url(#linear-gradient-12)"/><path class="cls-9" d="m300.56 232.08v8.81c-8.89 4.79-18.9 10.04-29.73 15.62v-8.81c10.83-5.58 20.84-10.83 29.73-15.62z" fill="#f7ae1a"/><path class="cls-10" d="m300.56 14.87v217.21c-8.89 4.79-18.9 10.04-29.73 15.62v-232.83c0-4.48 1.98-8.51 5.12-11.22 5.34 1.38 13.45 3.95 24.41 8.77 0.13 0.79 0.2 1.61 0.2 2.45z" fill="url(#linear-gradient-13)"/><path class="cls-16" d="m300.56 255.34v178.1c0 1.71-0.29 3.35-0.82 4.87-8.23 2.8-16.09 4.95-23.49 6.6-3.31-2.72-5.42-6.85-5.42-11.47v-77.66c8.02-7.66 13.02-18.46 13.02-30.43s-5-22.77-13.02-30.43v-24.13z" fill="url(#linear-gradient-13)"/><path class="cls-13" d="m346.46 203.81v8.81c-4.46 3.55-9.4 7.08-14.86 10.54-3.99 2.53-9 5.5-14.86 8.81v-8.81c5.86-3.31 10.87-6.28 14.86-8.81 5.46-3.46 10.4-6.99 14.86-10.54z" fill="#acb3ba"/><path class="cls-15" d="m346.46 38.34v165.47c-4.46 3.55-9.4 7.08-14.86 10.54-3.99 2.53-9 5.5-14.86 8.81v-202.86c5.93 3.08 12.43 6.68 19.48 10.89 3.65 2.18 7.06 4.58 10.24 7.15z" fill="#dadbcd"/><path class="cls-15" d="m346.46 246.83v167.82c-8.37 6.42-18.21 12.26-29.72 17.17v-184.88l12.22-6.35s7.8 1.74 17.5 6.24z" fill="#dadbcd"/><path class="cls-3" d="m389.4 132.26c-0.51 9.27-0.63 37.31-27.74 66.39v-8.81c24.68-26.47 26.99-52.08 27.59-63.45 0.19 2.52 0.22 4.52 0.15 5.87z" fill="#398e5b"/><path class="cls-5" d="m389.25 126.39c-0.6 11.37-2.91 36.98-27.59 63.45v-136.03c20.13 25.56 26.48 57.92 27.59 72.58z" fill="url(#linear-gradient-15)"/><path class="cls-12" d="m391.38 329.76c0 16.83-6.55 46-29.72 71.06v-145.05c5.94 4.42 11.52 9.96 15.52 16.85 14.2 24.44 14.2 32.37 14.2 57.14z" fill="url(#linear-gradient-16)"/></g></g></svg>
