<svg width="1920" height="1080" version="1.1" viewBox="0 0 508 285.75" xmlns="http://www.w3.org/2000/svg">
 <g stroke-linecap="round" stroke-linejoin="round">
  <g fill="#e6e6e6" stroke-width=".734">
   <rect x="78.525" y="53.814" width="349.34" height=".57838" ry=".28919" stop-color="#000000" style="paint-order:markers stroke fill"/>
   <rect x="78.525" y="53.814" width="349.34" height=".57838" ry=".28919" stop-color="#000000" style="paint-order:markers stroke fill"/>
   <rect x="78.525" y="85.564" width="349.34" height=".57838" ry=".28919" stop-color="#000000" style="paint-order:markers stroke fill"/>
   <rect x="78.525" y="117.31" width="349.34" height=".57838" ry=".28919" stop-color="#000000" style="paint-order:markers stroke fill"/>
   <rect x="78.525" y="149.06" width="349.34" height=".57838" ry=".28919" stop-color="#000000" style="paint-order:markers stroke fill"/>
   <rect x="78.525" y="180.81" width="349.34" height=".57838" ry=".28919" stop-color="#000000" style="paint-order:markers stroke fill"/>
   <rect x="78.525" y="212.56" width="349.34" height=".57838" ry=".28919" stop-color="#000000" style="paint-order:markers stroke fill"/>
  </g>
  <rect x="120.17" y="79.841" width="57.838" height="134.76" ry="13.014" fill="#0287bf" stop-color="#000000" stroke-width=".734" style="paint-order:markers stroke fill"/>
  <rect x="300.09" y="79.841" width="57.838" height="134.76" ry="13.014" fill="#0287bf" stop-color="#000000" stroke-width=".734" style="paint-order:markers stroke fill"/>
  <g fill="#014f70">
   <path d="m313.1 79.842c-7.2096 0-13.014 5.8036-13.014 13.013v11.279h57.838v-11.279c0-7.2095-5.8041-13.013-13.014-13.013z" stop-color="#000000" stroke-width=".734" style="paint-order:markers stroke fill"/>
   <g stroke-width=".734" style="paint-order:markers stroke fill;white-space:pre" aria-label="BRC in circulation">
    <path d="m112.83 234.18q0.60254 0.12841 0.96802 0.60254 0.36548 0.46426 0.36548 1.0668 0 0.86925-0.61242 1.3829-0.60255 0.50377-1.6891 0.50377h-3.23v-6.9342h3.1214q1.0569 0 1.6496 0.48401 0.60254 0.48401 0.60254 1.3138 0 0.61242-0.32596 1.0174-0.31609 0.40499-0.84949 0.56303zm-2.509-0.57291h1.1063q0.41487 0 0.63218-0.1778 0.22719-0.18768 0.22719-0.54328t-0.22719-0.54328q-0.21731-0.18767-0.63218-0.18767h-1.1063zm1.2446 2.7658q0.42475 0 0.65194-0.18768 0.23706-0.19756 0.23706-0.56304 0-0.36547-0.24694-0.57291-0.23707-0.20743-0.66181-0.20743h-1.2248v1.5311z"/>
    <path d="m118.68 237.74-1.4422-2.6176h-0.40499v2.6176h-1.6891v-6.9342h2.8349q0.81986 0 1.3928 0.28646 0.58278 0.28645 0.86924 0.79022 0.28645 0.49389 0.28645 1.1063 0 0.69144-0.39511 1.2347-0.38523 0.54328-1.1458 0.77047l1.6002 2.746zm-1.8471-3.8128h1.047q0.46426 0 0.69145-0.22719 0.23706-0.22719 0.23706-0.64206 0-0.39511-0.23706-0.6223-0.22719-0.22718-0.69145-0.22718h-1.047z"/>
    <path d="m121.3 234.26q0-1.0273 0.44449-1.8274 0.4445-0.80997 1.2347-1.2545 0.8001-0.45438 1.8076-0.45438 1.2347 0 2.1138 0.65193 0.87912 0.65194 1.1755 1.778h-1.857q-0.20743-0.43462-0.59266-0.66181-0.37536-0.22719-0.85937-0.22719-0.78034 0-1.2644 0.54328t-0.48401 1.452q0 0.90876 0.48401 1.452 0.48401 0.54328 1.2644 0.54328 0.48401 0 0.85937-0.22719 0.38523-0.22719 0.59266-0.66181h1.857q-0.29634 1.1261-1.1755 1.778-0.87912 0.64206-2.1138 0.64206-1.0075 0-1.8076-0.4445-0.79023-0.45438-1.2347-1.2545-0.44449-0.8001-0.44449-1.8274z"/>
    <path d="m132.05 231.66q-0.4445 0-0.73096-0.25682-0.27658-0.2667-0.27658-0.65193 0-0.39511 0.27658-0.65194 0.28646-0.2667 0.73096-0.2667 0.43462 0 0.7112 0.2667 0.28645 0.25683 0.28645 0.65194 0 0.38523-0.28645 0.65193-0.27658 0.25682-0.7112 0.25682zm0.83961 0.57291v5.5118h-1.6891v-5.5118z"/>
    <path d="m137.48 232.17q0.96802 0 1.5409 0.63217 0.58279 0.6223 0.58279 1.7187v3.2202h-1.6792v-2.993q0-0.55315-0.28645-0.85936-0.28646-0.30621-0.77047-0.30621t-0.77046 0.30621q-0.28646 0.30621-0.28646 0.85936v2.993h-1.6891v-5.5118h1.6891v0.73096q0.25682-0.36548 0.69145-0.57291 0.43462-0.21731 0.9779-0.21731z"/>
    <path d="m142.54 234.98q0-0.85937 0.34572-1.5014 0.3556-0.64206 0.9779-0.98778 0.63218-0.34572 1.4422-0.34572 1.0372 0 1.7286 0.54328 0.70133 0.54327 0.91864 1.531h-1.7978q-0.22719-0.63218-0.87912-0.63218-0.46425 0-0.74083 0.36548-0.27658 0.3556-0.27658 1.0273t0.27658 1.0372q0.27658 0.3556 0.74083 0.3556 0.65193 0 0.87912-0.63218h1.7978q-0.21731 0.96802-0.91864 1.5212-0.70132 0.55316-1.7286 0.55316-0.80997 0-1.4422-0.34572-0.6223-0.34572-0.9779-0.98778-0.34572-0.64205-0.34572-1.5014z"/>
    <path d="m149.7 231.66q-0.4445 0-0.73096-0.25682-0.27657-0.2667-0.27657-0.65193 0-0.39511 0.27657-0.65194 0.28646-0.2667 0.73096-0.2667 0.43462 0 0.7112 0.2667 0.28645 0.25683 0.28645 0.65194 0 0.38523-0.28645 0.65193-0.27658 0.25682-0.7112 0.25682zm0.83961 0.57291v5.5118h-1.6891v-5.5118z"/>
    <path d="m153.45 233.15q0.29634-0.45437 0.74084-0.7112 0.4445-0.26669 0.98777-0.26669v1.7879h-0.46425q-0.63218 0-0.94827 0.27658-0.31609 0.2667-0.31609 0.94827v2.5583h-1.6891v-5.5118h1.6891z"/>
    <path d="m155.65 234.98q0-0.85937 0.34572-1.5014 0.3556-0.64206 0.9779-0.98778 0.63218-0.34572 1.4422-0.34572 1.0372 0 1.7286 0.54328 0.70132 0.54327 0.91863 1.531h-1.7978q-0.22718-0.63218-0.87912-0.63218-0.46425 0-0.74083 0.36548-0.27658 0.3556-0.27658 1.0273t0.27658 1.0372q0.27658 0.3556 0.74083 0.3556 0.65194 0 0.87912-0.63218h1.7978q-0.21731 0.96802-0.91863 1.5212-0.70133 0.55316-1.7286 0.55316-0.80998 0-1.4422-0.34572-0.6223-0.34572-0.9779-0.98778-0.34572-0.64205-0.34572-1.5014z"/>
    <path d="m167.41 232.23v5.5118h-1.6891v-0.75071q-0.25682 0.36547-0.70132 0.59266-0.43462 0.21731-0.96802 0.21731-0.63218 0-1.1162-0.27657-0.48401-0.28646-0.75071-0.81986t-0.2667-1.2545v-3.2202h1.6792v2.993q0 0.55315 0.28646 0.85936 0.28645 0.30621 0.77047 0.30621 0.49388 0 0.78034-0.30621 0.28645-0.30621 0.28645-0.85936v-2.993z"/>
    <path d="m170.31 230.43v7.3096h-1.6891v-7.3096z"/>
    <path d="m171.2 234.97q0-0.84949 0.31609-1.4915 0.32597-0.64206 0.87912-0.98778 0.55316-0.34572 1.2347-0.34572 0.58278 0 1.0174 0.23707 0.4445 0.23706 0.68156 0.6223v-0.78035h1.6891v5.5118h-1.6891v-0.78035q-0.24694 0.38524-0.69144 0.6223-0.43462 0.23707-1.0174 0.23707-0.67169 0-1.2248-0.34572-0.55315-0.3556-0.87912-0.99766-0.31609-0.65193-0.31609-1.5014zm4.1289 0.01q0-0.63218-0.3556-0.99766-0.34572-0.36547-0.84949-0.36547-0.50376 0-0.85936 0.36547-0.34572 0.3556-0.34572 0.98778t0.34572 1.0075q0.3556 0.36548 0.85936 0.36548 0.50377 0 0.84949-0.36548 0.3556-0.36547 0.3556-0.99765z"/>
    <path d="m181.32 236.31v1.4323h-0.85937q-0.91863 0-1.4323-0.4445-0.51364-0.45438-0.51364-1.4718v-2.1929h-0.67169v-1.4026h0.67169v-1.3434h1.6891v1.3434h1.1063v1.4026h-1.1063v2.2126q0 0.24694 0.11853 0.3556 0.11854 0.10865 0.39511 0.10865z"/>
    <path d="m183.1 231.66q-0.4445 0-0.73095-0.25682-0.27658-0.2667-0.27658-0.65193 0-0.39511 0.27658-0.65194 0.28645-0.2667 0.73095-0.2667 0.43463 0 0.7112 0.2667 0.28646 0.25683 0.28646 0.65194 0 0.38523-0.28646 0.65193-0.27657 0.25682-0.7112 0.25682zm0.83962 0.57291v5.5118h-1.6891v-5.5118z"/>
    <path d="m187.68 237.82q-0.80998 0-1.4619-0.34572-0.64206-0.34572-1.0174-0.98778-0.36548-0.64205-0.36548-1.5014 0-0.84949 0.37536-1.4915 0.37535-0.65194 1.0273-0.99766 0.65194-0.34572 1.4619-0.34572 0.80998 0 1.4619 0.34572 0.65194 0.34572 1.0273 0.99766 0.37536 0.64205 0.37536 1.4915t-0.38524 1.5014q-0.37535 0.64206-1.0372 0.98778-0.65193 0.34572-1.4619 0.34572zm0-1.4619q0.48401 0 0.81985-0.3556 0.34572-0.3556 0.34572-1.0174t-0.33584-1.0174q-0.32597-0.3556-0.80998-0.3556-0.49388 0-0.81985 0.3556-0.32597 0.34572-0.32597 1.0174 0 0.66181 0.31609 1.0174 0.32597 0.3556 0.80998 0.3556z"/>
    <path d="m194.82 232.17q0.96802 0 1.5409 0.63217 0.58279 0.6223 0.58279 1.7187v3.2202h-1.6792v-2.993q0-0.55315-0.28646-0.85936t-0.77047-0.30621-0.77046 0.30621q-0.28646 0.30621-0.28646 0.85936v2.993h-1.6891v-5.5118h1.6891v0.73096q0.25682-0.36548 0.69145-0.57291 0.43462-0.21731 0.9779-0.21731z"/>
   </g>
   <g stroke-width=".734" style="paint-order:markers stroke fill;white-space:pre" aria-label="Cash at reserve banks">
    <path d="m320.01 228.97q0-1.0273 0.4445-1.8274 0.4445-0.80997 1.2347-1.2545 0.8001-0.45438 1.8076-0.45438 1.2347 0 2.1138 0.65193t1.1754 1.778h-1.857q-0.20743-0.43462-0.59266-0.66181-0.37536-0.22719-0.85937-0.22719-0.78034 0-1.2644 0.54328-0.48401 0.54328-0.48401 1.452 0 0.90876 0.48401 1.452 0.48402 0.54328 1.2644 0.54328 0.48401 0 0.85937-0.22719 0.38523-0.22719 0.59266-0.66181h1.857q-0.29633 1.1261-1.1754 1.778-0.87912 0.64205-2.1138 0.64205-1.0075 0-1.8076-0.4445-0.79022-0.45437-1.2347-1.2545t-0.4445-1.8274z"/>
    <path d="m327.49 229.68q0-0.84949 0.31608-1.4915 0.32597-0.64206 0.87913-0.98778 0.55315-0.34572 1.2347-0.34572 0.58279 0 1.0174 0.23706 0.4445 0.23707 0.68156 0.6223v-0.78034h1.6891v5.5118h-1.6891v-0.78035q-0.24694 0.38523-0.69144 0.6223-0.43462 0.23707-1.0174 0.23707-0.67169 0-1.2248-0.34572-0.55316-0.3556-0.87913-0.99766-0.31608-0.65193-0.31608-1.5014zm4.1289 0.01q0-0.63218-0.3556-0.99766-0.34572-0.36547-0.84948-0.36547-0.50377 0-0.85937 0.36547-0.34572 0.3556-0.34572 0.98778t0.34572 1.0075q0.3556 0.36548 0.85937 0.36548 0.50376 0 0.84948-0.36548 0.3556-0.36547 0.3556-0.99765z"/>
    <path d="m336.78 232.53q-0.72108 0-1.2841-0.24695-0.56303-0.24694-0.889-0.67168-0.32597-0.43463-0.36548-0.96803h1.6693q0.0296 0.28646 0.2667 0.46426 0.23707 0.1778 0.58279 0.1778 0.31609 0 0.48401-0.11853 0.1778-0.12842 0.1778-0.32597 0-0.23707-0.24694-0.34572-0.24694-0.11854-0.8001-0.25682-0.59267-0.13829-0.98778-0.28646-0.39511-0.15804-0.68156-0.48401-0.28646-0.33585-0.28646-0.89888 0-0.47413 0.25682-0.85936 0.2667-0.39511 0.77047-0.6223 0.51364-0.22719 1.215-0.22719 1.0372 0 1.6298 0.51364 0.60254 0.51365 0.69144 1.3631h-1.5607q-0.0395-0.28645-0.25682-0.45437-0.20743-0.16793-0.55315-0.16793-0.29634 0-0.45438 0.11854-0.15805 0.10865-0.15805 0.30621 0 0.23707 0.24695 0.3556 0.25682 0.11853 0.79022 0.23706 0.61242 0.15805 0.99766 0.31609 0.38523 0.14817 0.67168 0.49389 0.29634 0.33585 0.30621 0.90876 0 0.48401-0.27657 0.86924-0.2667 0.37536-0.78035 0.59267-0.50376 0.21731-1.1754 0.21731z"/>
    <path d="m343.44 226.88q0.94827 0 1.5212 0.63218 0.57291 0.6223 0.57291 1.7187v3.2202h-1.6792v-2.993q0-0.55315-0.28646-0.85936-0.28645-0.30622-0.77046-0.30622-0.48402 0-0.77047 0.30622-0.28646 0.30621-0.28646 0.85936v2.993h-1.6891v-7.3096h1.6891v2.5386q0.25683-0.36547 0.70133-0.58279 0.4445-0.21731 0.99765-0.21731z"/>
    <path d="m348.46 229.68q0-0.84949 0.31609-1.4915 0.32597-0.64206 0.87912-0.98778 0.55316-0.34572 1.2347-0.34572 0.58279 0 1.0174 0.23706 0.4445 0.23707 0.68157 0.6223v-0.78034h1.6891v5.5118h-1.6891v-0.78035q-0.24694 0.38523-0.69144 0.6223-0.43463 0.23707-1.0174 0.23707-0.67169 0-1.2248-0.34572-0.55315-0.3556-0.87912-0.99766-0.31609-0.65193-0.31609-1.5014zm4.1289 0.01q0-0.63218-0.3556-0.99766-0.34572-0.36547-0.84949-0.36547-0.50376 0-0.85936 0.36547-0.34573 0.3556-0.34573 0.98778t0.34573 1.0075q0.3556 0.36548 0.85936 0.36548 0.50377 0 0.84949-0.36548 0.3556-0.36547 0.3556-0.99765z"/>
    <path d="m358.58 231.02v1.4323h-0.85937q-0.91863 0-1.4323-0.4445-0.51364-0.45438-0.51364-1.4718v-2.1929h-0.67169v-1.4026h0.67169v-1.3434h1.6891v1.3434h1.1063v1.4026h-1.1063v2.2126q0 0.24695 0.11853 0.3556 0.11854 0.10866 0.39511 0.10866z"/>
    <path d="m363.3 227.86q0.29633-0.45437 0.74083-0.7112 0.4445-0.2667 0.98778-0.2667v1.7879h-0.46425q-0.63218 0-0.94827 0.27658-0.31609 0.2667-0.31609 0.94826v2.5584h-1.6891v-5.5118h1.6891z"/>
    <path d="m371.03 229.6q0 0.23706-0.0296 0.49389h-3.8227q0.0395 0.51364 0.32597 0.79022 0.29633 0.2667 0.72107 0.2667 0.63218 0 0.87912-0.5334h1.7978q-0.13829 0.54328-0.50377 0.9779-0.3556 0.43462-0.89887 0.68156-0.54328 0.24695-1.215 0.24695-0.80998 0-1.4422-0.34572-0.63218-0.34573-0.98778-0.98778-0.3556-0.64206-0.3556-1.5014 0-0.85937 0.34572-1.5014 0.3556-0.64206 0.98778-0.98778 0.63217-0.34572 1.452-0.34572 0.8001 0 1.4224 0.33584 0.6223 0.33585 0.96802 0.95815 0.3556 0.6223 0.3556 1.452zm-1.7286-0.4445q0-0.43462-0.29633-0.69145-0.29634-0.25682-0.74084-0.25682-0.42474 0-0.72107 0.24695-0.28646 0.24694-0.3556 0.70132z"/>
    <path d="m374.16 232.53q-0.72108 0-1.2841-0.24695-0.56303-0.24694-0.889-0.67168-0.32597-0.43463-0.36548-0.96803h1.6693q0.0296 0.28646 0.2667 0.46426 0.23707 0.1778 0.58279 0.1778 0.31609 0 0.48401-0.11853 0.1778-0.12842 0.1778-0.32597 0-0.23707-0.24694-0.34572-0.24695-0.11854-0.8001-0.25682-0.59267-0.13829-0.98778-0.28646-0.39511-0.15804-0.68156-0.48401-0.28646-0.33585-0.28646-0.89888 0-0.47413 0.25682-0.85936 0.2667-0.39511 0.77047-0.6223 0.51364-0.22719 1.215-0.22719 1.0372 0 1.6298 0.51364 0.60254 0.51365 0.69144 1.3631h-1.5607q-0.0395-0.28645-0.25682-0.45437-0.20743-0.16793-0.55315-0.16793-0.29634 0-0.45438 0.11854-0.15805 0.10865-0.15805 0.30621 0 0.23707 0.24695 0.3556 0.25682 0.11853 0.79022 0.23706 0.61242 0.15805 0.99766 0.31609 0.38523 0.14817 0.67168 0.49389 0.29634 0.33585 0.30621 0.90876 0 0.48401-0.27657 0.86924-0.2667 0.37536-0.78035 0.59267-0.50376 0.21731-1.1754 0.21731z"/>
    <path d="m382.63 229.6q0 0.23706-0.0296 0.49389h-3.8227q0.0395 0.51364 0.32597 0.79022 0.29633 0.2667 0.72107 0.2667 0.63218 0 0.87913-0.5334h1.7978q-0.13829 0.54328-0.50377 0.9779-0.3556 0.43462-0.89887 0.68156-0.54328 0.24695-1.215 0.24695-0.80998 0-1.4422-0.34572-0.63218-0.34573-0.98778-0.98778-0.3556-0.64206-0.3556-1.5014 0-0.85937 0.34572-1.5014 0.3556-0.64206 0.98778-0.98778t1.452-0.34572q0.8001 0 1.4224 0.33584 0.6223 0.33585 0.96802 0.95815 0.3556 0.6223 0.3556 1.452zm-1.7286-0.4445q0-0.43462-0.29633-0.69145-0.29634-0.25682-0.74084-0.25682-0.42474 0-0.72107 0.24695-0.28646 0.24694-0.3556 0.70132z"/>
    <path d="m385.21 227.86q0.29634-0.45437 0.74084-0.7112 0.4445-0.2667 0.98777-0.2667v1.7879h-0.46425q-0.63218 0-0.94827 0.27658-0.31609 0.2667-0.31609 0.94826v2.5584h-1.6891v-5.5118h1.6891z"/>
    <path d="m390.23 230.87 1.1952-3.9314h1.7978l-1.9558 5.5118h-2.0842l-1.9558-5.5118h1.8076z"/>
    <path d="m399.13 229.6q0 0.23706-0.0296 0.49389h-3.8227q0.0395 0.51364 0.32596 0.79022 0.29634 0.2667 0.72108 0.2667 0.63218 0 0.87912-0.5334h1.7978q-0.13829 0.54328-0.50377 0.9779-0.3556 0.43462-0.89888 0.68156-0.54327 0.24695-1.215 0.24695-0.80998 0-1.4422-0.34572-0.63217-0.34573-0.98777-0.98778-0.3556-0.64206-0.3556-1.5014 0-0.85937 0.34572-1.5014 0.3556-0.64206 0.98778-0.98778 0.63217-0.34572 1.452-0.34572 0.8001 0 1.4224 0.33584 0.6223 0.33585 0.96802 0.95815 0.3556 0.6223 0.3556 1.452zm-1.7286-0.4445q0-0.43462-0.29634-0.69145-0.29633-0.25682-0.74083-0.25682-0.42474 0-0.72108 0.24695-0.28645 0.24694-0.35559 0.70132z"/>
    <path d="m403.8 227.72q0.23706-0.38523 0.68156-0.6223 0.4445-0.23706 1.0174-0.23706 0.68157 0 1.2347 0.34572 0.55316 0.34572 0.86925 0.98778 0.32596 0.64205 0.32596 1.4915t-0.32596 1.5014q-0.31609 0.64206-0.86925 0.99766-0.55315 0.34572-1.2347 0.34572-0.58279 0-1.0174-0.22719-0.43462-0.23707-0.68156-0.6223v0.77047h-1.6891v-7.3096h1.6891zm2.4102 1.9657q0-0.63218-0.3556-0.98778-0.34572-0.36547-0.85936-0.36547-0.50377 0-0.85937 0.36547-0.34572 0.36548-0.34572 0.99766t0.34572 0.99765q0.3556 0.36548 0.85937 0.36548 0.50376 0 0.85936-0.36548 0.3556-0.37535 0.3556-1.0075z"/>
    <path d="m408.48 229.68q0-0.84949 0.31609-1.4915 0.32596-0.64206 0.87912-0.98778 0.55315-0.34572 1.2347-0.34572 0.58279 0 1.0174 0.23706 0.4445 0.23707 0.68157 0.6223v-0.78034h1.6891v5.5118h-1.6891v-0.78035q-0.24695 0.38523-0.69145 0.6223-0.43462 0.23707-1.0174 0.23707-0.67169 0-1.2248-0.34572-0.55316-0.3556-0.87912-0.99766-0.31609-0.65193-0.31609-1.5014zm4.1289 0.01q0-0.63218-0.3556-0.99766-0.34572-0.36547-0.84949-0.36547t-0.85937 0.36547q-0.34572 0.3556-0.34572 0.98778t0.34572 1.0075q0.3556 0.36548 0.85937 0.36548t0.84949-0.36548q0.3556-0.36547 0.3556-0.99765z"/>
    <path d="m418.88 226.88q0.96802 0 1.5409 0.63218 0.58279 0.6223 0.58279 1.7187v3.2202h-1.6792v-2.993q0-0.55315-0.28645-0.85936-0.28646-0.30622-0.77047-0.30622t-0.77047 0.30622q-0.28645 0.30621-0.28645 0.85936v2.993h-1.6891v-5.5118h1.6891v0.73095q0.25682-0.36547 0.69144-0.57291 0.43462-0.21731 0.9779-0.21731z"/>
    <path d="m425.55 232.45-1.6792-2.3114v2.3114h-1.6891v-7.3096h1.6891v4.04l1.6694-2.2422h2.0842l-2.2916 2.7658 2.3114 2.746z"/>
    <path d="m430.53 232.53q-0.72108 0-1.2841-0.24695-0.56303-0.24694-0.889-0.67168-0.32596-0.43463-0.36548-0.96803h1.6694q0.0296 0.28646 0.2667 0.46426 0.23706 0.1778 0.58279 0.1778 0.31608 0 0.48401-0.11853 0.1778-0.12842 0.1778-0.32597 0-0.23707-0.24695-0.34572-0.24694-0.11854-0.8001-0.25682-0.59266-0.13829-0.98777-0.28646-0.39512-0.15804-0.68157-0.48401-0.28646-0.33585-0.28646-0.89888 0-0.47413 0.25683-0.85936 0.2667-0.39511 0.77046-0.6223 0.51365-0.22719 1.215-0.22719 1.0372 0 1.6298 0.51364 0.60254 0.51365 0.69144 1.3631h-1.5607q-0.0395-0.28645-0.25683-0.45437-0.20743-0.16793-0.55315-0.16793-0.29633 0-0.45438 0.11854-0.15804 0.10865-0.15804 0.30621 0 0.23707 0.24694 0.3556 0.25682 0.11853 0.79022 0.23706 0.61242 0.15805 0.99766 0.31609 0.38523 0.14817 0.67169 0.49389 0.29633 0.33585 0.30621 0.90876 0 0.48401-0.27658 0.86924-0.2667 0.37536-0.78034 0.59267-0.50377 0.21731-1.1755 0.21731z"/>
   </g>
  </g>
  <g fill="#0287bf" stroke-width=".734" style="paint-order:markers stroke fill;white-space:pre" aria-label="Reserve treasury fund">
   <path d="m323.84 251.5-1.4422-2.6176h-0.40498v2.6176h-1.6891v-6.9342h2.8349q0.81985 0 1.3928 0.28646 0.58279 0.28645 0.86925 0.79022 0.28645 0.49389 0.28645 1.1063 0 0.69144-0.39511 1.2347-0.38523 0.54328-1.1458 0.77047l1.6002 2.746zm-1.8471-3.8128h1.047q0.46425 0 0.69144-0.22719 0.23707-0.22719 0.23707-0.64205 0-0.39512-0.23707-0.6223-0.22719-0.22719-0.69144-0.22719h-1.047z"/>
   <path d="m331.94 248.65q0 0.23707-0.0296 0.49389h-3.8227q0.0395 0.51364 0.32597 0.79022 0.29633 0.2667 0.72108 0.2667 0.63218 0 0.87912-0.5334h1.7978q-0.13828 0.54328-0.50376 0.9779-0.3556 0.43462-0.89888 0.68157-0.54328 0.24694-1.215 0.24694-0.80997 0-1.4422-0.34572t-0.98778-0.98778q-0.3556-0.64205-0.3556-1.5014t0.34573-1.5014q0.3556-0.64206 0.98777-0.98778 0.63218-0.34572 1.452-0.34572 0.8001 0 1.4224 0.33584 0.6223 0.33585 0.96803 0.95815 0.35559 0.6223 0.35559 1.452zm-1.7286-0.4445q0-0.43462-0.29634-0.69144-0.29633-0.25683-0.74083-0.25683-0.42474 0-0.72108 0.24695-0.28645 0.24694-0.3556 0.70132z"/>
   <path d="m335.07 251.58q-0.72108 0-1.2841-0.24694-0.56303-0.24695-0.889-0.67169-0.32597-0.43462-0.36548-0.96802h1.6694q0.0296 0.28645 0.2667 0.46425 0.23706 0.1778 0.58278 0.1778 0.31609 0 0.48402-0.11853 0.1778-0.12841 0.1778-0.32597 0-0.23706-0.24695-0.34572-0.24694-0.11853-0.8001-0.25682-0.59266-0.13829-0.98778-0.28646-0.39511-0.15804-0.68156-0.48401-0.28646-0.33584-0.28646-0.89888 0-0.47413 0.25683-0.85936 0.26669-0.39511 0.77046-0.6223 0.51365-0.22719 1.215-0.22719 1.0372 0 1.6298 0.51364 0.60254 0.51365 0.69144 1.3631h-1.5607q-0.0395-0.28646-0.25683-0.45438-0.20743-0.16792-0.55315-0.16792-0.29634 0-0.45438 0.11853-0.15804 0.10866-0.15804 0.30621 0 0.23707 0.24694 0.3556 0.25682 0.11853 0.79022 0.23707 0.61242 0.15804 0.99766 0.31609 0.38523 0.14816 0.67169 0.49388 0.29633 0.33585 0.30621 0.90876 0 0.48401-0.27658 0.86924-0.2667 0.37536-0.78035 0.59267-0.50376 0.21731-1.1754 0.21731z"/>
   <path d="m343.53 248.65q0 0.23707-0.0296 0.49389h-3.8227q0.0395 0.51364 0.32597 0.79022 0.29633 0.2667 0.72108 0.2667 0.63217 0 0.87912-0.5334h1.7978q-0.13829 0.54328-0.50376 0.9779-0.3556 0.43462-0.89888 0.68157-0.54328 0.24694-1.215 0.24694-0.80997 0-1.4422-0.34572t-0.98778-0.98778q-0.3556-0.64205-0.3556-1.5014t0.34572-1.5014q0.3556-0.64206 0.98778-0.98778t1.452-0.34572q0.8001 0 1.4224 0.33584 0.6223 0.33585 0.96802 0.95815 0.3556 0.6223 0.3556 1.452zm-1.7286-0.4445q0-0.43462-0.29633-0.69144-0.29633-0.25683-0.74083-0.25683-0.42475 0-0.72108 0.24695-0.28645 0.24694-0.3556 0.70132z"/>
   <path d="m346.11 246.91q0.29633-0.45438 0.74083-0.7112 0.4445-0.2667 0.98778-0.2667v1.7879h-0.46426q-0.63218 0-0.94827 0.27658-0.31608 0.2667-0.31608 0.94827v2.5583h-1.6891v-5.5118h1.6891z"/>
   <path d="m351.13 249.92 1.1952-3.9314h1.7978l-1.9558 5.5118h-2.0842l-1.9558-5.5118h1.8076z"/>
   <path d="m360.03 248.65q0 0.23707-0.0296 0.49389h-3.8227q0.0395 0.51364 0.32597 0.79022 0.29633 0.2667 0.72108 0.2667 0.63217 0 0.87912-0.5334h1.7978q-0.13829 0.54328-0.50376 0.9779-0.3556 0.43462-0.89888 0.68157-0.54328 0.24694-1.215 0.24694-0.80997 0-1.4422-0.34572t-0.98778-0.98778q-0.3556-0.64205-0.3556-1.5014t0.34572-1.5014q0.3556-0.64206 0.98778-0.98778t1.452-0.34572q0.8001 0 1.4224 0.33584 0.6223 0.33585 0.96802 0.95815 0.3556 0.6223 0.3556 1.452zm-1.7286-0.4445q0-0.43462-0.29633-0.69144-0.29633-0.25683-0.74083-0.25683-0.42475 0-0.72108 0.24695-0.28645 0.24694-0.3556 0.70132z"/>
   <path d="m366.08 250.07v1.4323h-0.85937q-0.91863 0-1.4323-0.4445-0.51364-0.45438-0.51364-1.4718v-2.1929h-0.67169v-1.4026h0.67169v-1.3434h1.6891v1.3434h1.1063v1.4026h-1.1063v2.2126q0 0.24694 0.11853 0.3556 0.11853 0.10865 0.39511 0.10865z"/>
   <path d="m368.71 246.91q0.29634-0.45438 0.74084-0.7112 0.4445-0.2667 0.98777-0.2667v1.7879h-0.46425q-0.63218 0-0.94827 0.27658-0.31609 0.2667-0.31609 0.94827v2.5583h-1.6891v-5.5118h1.6891z"/>
   <path d="m376.45 248.65q0 0.23707-0.0296 0.49389h-3.8227q0.0395 0.51364 0.32597 0.79022 0.29633 0.2667 0.72108 0.2667 0.63217 0 0.87912-0.5334h1.7978q-0.13829 0.54328-0.50376 0.9779-0.3556 0.43462-0.89888 0.68157-0.54328 0.24694-1.215 0.24694-0.80997 0-1.4422-0.34572t-0.98778-0.98778q-0.3556-0.64205-0.3556-1.5014t0.34572-1.5014q0.3556-0.64206 0.98778-0.98778t1.452-0.34572q0.8001 0 1.4224 0.33584 0.6223 0.33585 0.96802 0.95815 0.3556 0.6223 0.3556 1.452zm-1.7286-0.4445q0-0.43462-0.29633-0.69144-0.29633-0.25683-0.74083-0.25683-0.42475 0-0.72108 0.24695-0.28646 0.24694-0.3556 0.70132z"/>
   <path d="m377 248.73q0-0.84949 0.31609-1.4915 0.32597-0.64206 0.87912-0.98778 0.55316-0.34572 1.2347-0.34572 0.58279 0 1.0174 0.23707 0.44449 0.23706 0.68156 0.6223v-0.78035h1.6891v5.5118h-1.6891v-0.78035q-0.24694 0.38524-0.69144 0.6223-0.43462 0.23707-1.0174 0.23707-0.67169 0-1.2248-0.34572-0.55315-0.3556-0.87912-0.99766-0.31609-0.65193-0.31609-1.5014zm4.1289 0.01q0-0.63218-0.3556-0.99765-0.34572-0.36548-0.84949-0.36548-0.50376 0-0.85936 0.36548-0.34572 0.3556-0.34572 0.98777 0 0.63218 0.34572 1.0075 0.3556 0.36547 0.85936 0.36547 0.50377 0 0.84949-0.36547 0.3556-0.36548 0.3556-0.99766z"/>
   <path d="m386.28 251.58q-0.72107 0-1.2841-0.24694-0.56303-0.24695-0.889-0.67169-0.32596-0.43462-0.36547-0.96802h1.6693q0.0296 0.28645 0.2667 0.46425 0.23707 0.1778 0.58279 0.1778 0.31609 0 0.48401-0.11853 0.1778-0.12841 0.1778-0.32597 0-0.23706-0.24695-0.34572-0.24694-0.11853-0.8001-0.25682-0.59266-0.13829-0.98777-0.28646-0.39511-0.15804-0.68157-0.48401-0.28645-0.33584-0.28645-0.89888 0-0.47413 0.25682-0.85936 0.2667-0.39511 0.77046-0.6223 0.51365-0.22719 1.215-0.22719 1.0372 0 1.6298 0.51364 0.60255 0.51365 0.69145 1.3631h-1.5607q-0.0395-0.28646-0.25682-0.45438-0.20744-0.16792-0.55316-0.16792-0.29633 0-0.45438 0.11853-0.15804 0.10866-0.15804 0.30621 0 0.23707 0.24694 0.3556 0.25683 0.11853 0.79023 0.23707 0.61242 0.15804 0.99765 0.31609 0.38523 0.14816 0.67169 0.49388 0.29633 0.33585 0.30621 0.90876 0 0.48401-0.27658 0.86924-0.2667 0.37536-0.78034 0.59267-0.50377 0.21731-1.1755 0.21731z"/>
   <path d="m395 245.99v5.5118h-1.6891v-0.75071q-0.25682 0.36548-0.70132 0.59266-0.43462 0.21731-0.96802 0.21731-0.63218 0-1.1162-0.27657-0.48401-0.28646-0.75071-0.81986t-0.2667-1.2545v-3.2202h1.6792v2.993q0 0.55315 0.28646 0.85936 0.28645 0.30621 0.77046 0.30621 0.49389 0 0.78035-0.30621 0.28645-0.30621 0.28645-0.85936v-2.993z"/>
   <path d="m397.9 246.91q0.29634-0.45438 0.74084-0.7112 0.4445-0.2667 0.98777-0.2667v1.7879h-0.46425q-0.63218 0-0.94827 0.27658-0.31609 0.2667-0.31609 0.94827v2.5583h-1.6891v-5.5118h1.6891z"/>
   <path d="m406.07 245.99-3.4572 8.1294h-1.8175l1.2644-2.8053-2.2422-5.3241h1.8866l1.2742 3.4473 1.2644-3.4473z"/>
   <path d="m411.54 247.39h-0.90875v4.1092h-1.6891v-4.1092h-0.61242v-1.4026h0.61242v-0.15804q0-1.0174 0.58279-1.5409 0.58278-0.5334 1.7088-0.5334 0.18768 0 0.27658 0.01v1.4323q-0.48401-0.0296-0.68157 0.13829-0.19755 0.16792-0.19755 0.60254v0.0494h0.90875z"/>
   <path d="m417.78 245.99v5.5118h-1.6891v-0.75071q-0.25682 0.36548-0.70132 0.59266-0.43463 0.21731-0.96802 0.21731-0.63218 0-1.1162-0.27657-0.48401-0.28646-0.75071-0.81986t-0.2667-1.2545v-3.2202h1.6792v2.993q0 0.55315 0.28645 0.85936 0.28646 0.30621 0.77047 0.30621 0.49389 0 0.78034-0.30621 0.28646-0.30621 0.28646-0.85936v-2.993z"/>
   <path d="m422.35 245.93q0.96802 0 1.5409 0.63217 0.58278 0.6223 0.58278 1.7187v3.2202h-1.6792v-2.993q0-0.55315-0.28645-0.85936-0.28646-0.30621-0.77047-0.30621t-0.77046 0.30621q-0.28646 0.30621-0.28646 0.85936v2.993h-1.6891v-5.5118h1.6891v0.73096q0.25682-0.36548 0.69144-0.57291 0.43463-0.21731 0.9779-0.21731z"/>
   <path d="m425.31 248.73q0-0.84949 0.31609-1.4915 0.32597-0.64206 0.87912-0.98778 0.55316-0.34572 1.2347-0.34572 0.54328 0 0.98778 0.22719 0.45438 0.22719 0.7112 0.61242v-2.5583h1.6891v7.3096h-1.6891v-0.79022q-0.23707 0.39511-0.68157 0.63217-0.43462 0.23707-1.0174 0.23707-0.68156 0-1.2347-0.34572-0.55315-0.3556-0.87912-0.99766-0.31609-0.65193-0.31609-1.5014zm4.1289 0.01q0-0.63218-0.3556-0.99765-0.34572-0.36548-0.84949-0.36548-0.50376 0-0.85936 0.36548-0.34573 0.3556-0.34573 0.98777 0 0.63218 0.34573 1.0075 0.3556 0.36547 0.85936 0.36547 0.50377 0 0.84949-0.36547 0.3556-0.36548 0.3556-0.99766z"/>
  </g>
  <g stroke-width=".734">
   <circle cx="94.141" cy="234.85" r="6.3622" fill="#0287bf" stop-color="#000000" style="paint-order:markers stroke fill"/>
   <circle cx="308.14" cy="227.91" r="6.3622" fill="#014f70" stop-color="#000000" style="paint-order:markers stroke fill"/>
   <circle cx="308.14" cy="249.07" r="6.3622" fill="#0287bf" stop-color="#000000" style="paint-order:markers stroke fill"/>
  </g>
 </g>
</svg>
