<svg width="279.68" height="266.36" version="1.1" viewBox="0 0 73.999 70.474" xml:space="preserve" xmlns="http://www.w3.org/2000/svg"><g transform="translate(-96.266 -66.809)"><g stroke-linecap="round" stroke-linejoin="round"><g stroke-width=".734"><circle cx="133.03" cy="102.37" r="35.34" fill="#333" stop-color="#000000" stroke-width=".80087" style="paint-order:markers stroke fill"/><circle cx="133.03" cy="102.37" r="32.389" fill="#0287bf" stop-color="#000000" style="paint-order:markers stroke fill"/><path d="m133.03 69.984a32.389 32.389 0 0 0-16.339 4.4302v15.235c0 2.6435 2.1283 4.7718 4.7718 4.7718h23.135c2.6435 0 4.7718-2.1283 4.7718-4.7718v-15.238a32.389 32.389 0 0 0-16.34-4.4266z" fill="#0bab4c" stop-color="#000000" style="paint-order:markers stroke fill"/><path d="m133.03 135.16a32.389 32.389 0 0 1-16.339-4.4302v-15.235c0-2.6435 2.1283-4.7718 4.7718-4.7718h23.135c2.6435 0 4.7718 2.1283 4.7718 4.7718v15.238a32.389 32.389 0 0 1-16.34 4.4266z" fill="#d1242b" stop-color="#000000" style="paint-order:markers stroke fill"/><path d="m100.5 102.37a32.389 32.389 0 0 0 4.4302 16.339h15.235c2.6435 0 4.7718-2.1283 4.7718-4.7718v-23.135c0-2.6435-2.1283-4.7718-4.7718-4.7718h-15.238a32.389 32.389 0 0 0-4.4266 16.34z" fill="#fbb815" stop-color="#000000" style="paint-order:markers stroke fill"/><path d="m165.5 102.37a32.389 32.389 0 0 1-4.4302 16.339h-15.235c-2.6435 0-4.7718-2.1283-4.7718-4.7718v-23.135c0-2.6435 2.1283-4.7718 4.7718-4.7718h15.238a32.389 32.389 0 0 1 4.4266 16.34z" fill="#f48222" stop-color="#000000" style="paint-order:markers stroke fill"/></g><g transform="matrix(.69708 0 0 .69708 40.297 31.01)" stroke-width=".734"><circle cx="133.03" cy="102.37" r="35.34" fill="#333" stop-color="#000000" stroke-width=".80087" style="paint-order:markers stroke fill"/><circle cx="133.03" cy="102.37" r="32.389" fill="#0287bf" stop-color="#000000" style="paint-order:markers stroke fill"/><path d="m133.03 69.984a32.389 32.389 0 0 0-16.339 4.4302v15.235c0 2.6435 2.1283 4.7718 4.7718 4.7718h23.135c2.6435 0 4.7718-2.1283 4.7718-4.7718v-15.238a32.389 32.389 0 0 0-16.34-4.4266z" fill="#0bab4c" stop-color="#000000" style="paint-order:markers stroke fill"/><path d="m133.03 135.16a32.389 32.389 0 0 1-16.339-4.4302v-15.235c0-2.6435 2.1283-4.7718 4.7718-4.7718h23.135c2.6435 0 4.7718 2.1283 4.7718 4.7718v15.238a32.389 32.389 0 0 1-16.34 4.4266z" fill="#d1242b" stop-color="#000000" style="paint-order:markers stroke fill"/><path d="m100.5 102.37a32.389 32.389 0 0 0 4.4302 16.339h15.235c2.6435 0 4.7718-2.1283 4.7718-4.7718v-23.135c0-2.6435-2.1283-4.7718-4.7718-4.7718h-15.238a32.389 32.389 0 0 0-4.4266 16.34z" fill="#fbb815" stop-color="#000000" style="paint-order:markers stroke fill"/><path d="m165.5 102.37a32.389 32.389 0 0 1-4.4302 16.339h-15.235c-2.6435 0-4.7718-2.1283-4.7718-4.7718v-23.135c0-2.6435 2.1283-4.7718 4.7718-4.7718h15.238a32.389 32.389 0 0 1 4.4266 16.34z" fill="#f48222" stop-color="#000000" style="paint-order:markers stroke fill"/></g><circle cx="133.03" cy="102.37" r="9.8672" fill="#0287bf" stop-color="#000000" stroke-width=".2236" style="paint-order:markers stroke fill"/></g></g></svg>
